<?xml version="1.0" encoding="UTF-8"?>
<svg id="Horizontal_Logo" data-name="Horizontal Logo" xmlns="http://www.w3.org/2000/svg" viewBox="0 0 1000 281.497">
  <g>
    <polygon points="98.781 45.19 105.161 87.382 169.647 98.802 92.198 98.802 98.781 45.19" fill="#ed1c24" stroke-width="0"/>
    <polygon points="27.914 101.4 92.121 112.82 98.702 210.331 105.083 101.4 27.914 101.4" fill="#231f20" stroke="#231f20" stroke-miterlimit="10"/>
  </g>
  <g>
    <path d="M122.806,181.517l11.222-53.061h-18.74l3.596-17.105h61.014l-3.595,17.105h-18.849l-11.222,53.061h-23.425Z" fill="#000" stroke-width="0"/>
    <path d="M169.438,181.517l14.817-70.166h23.425l-5.121,24.515h20.81l5.121-24.515h23.425l-14.817,70.166h-23.425l5.121-24.515h-20.81l-5.121,24.515h-23.425Z" fill="#000" stroke-width="0"/>
    <path d="M245.923,181.517l14.817-70.166h37.916c6.682,0,11.857,1.78,15.526,5.339,3.667,3.56,5.502,8.244,5.502,14.055,0,1.961-.218,4.031-.654,6.211-.945,4.722-2.906,8.879-5.883,12.475-2.979,3.596-6.719,6.447-11.222,8.553.654.582,1.18,1.291,1.58,2.125.398.836.708,1.726.926,2.669l4.249,18.74h-24.405l-3.813-16.234c-.218-1.016-.582-1.76-1.089-2.233-.509-.472-1.381-.708-2.615-.708h-3.377l-4.031,19.176h-23.425ZM277.192,144.255h8.607c2.978,0,5.156-.616,6.537-1.853,1.379-1.234,2.324-3.051,2.833-5.447.218-1.09.327-2.07.327-2.942,0-1.525-.455-2.65-1.362-3.377-.909-.726-2.452-1.09-4.631-1.09h-9.152l-3.16,14.709Z" fill="#000" stroke-width="0"/>
    <path d="M348.665,182.607c-6.03,0-11.314-.891-15.853-2.67-4.54-1.778-8.062-4.538-10.568-8.28-2.506-3.74-3.759-8.553-3.759-14.437,0-1.67.09-3.377.272-5.12.18-1.744.49-3.596.926-5.557,1.888-8.788,4.702-15.834,8.444-21.138,3.74-5.301,8.57-9.151,14.491-11.549,5.919-2.396,13.092-3.596,21.519-3.596,9.297,0,16.651,2.07,22.063,6.211,5.41,4.14,8.117,10.605,8.117,19.394,0,1.599-.092,3.287-.272,5.066-.182,1.78-.49,3.649-.926,5.611-1.816,8.645-4.595,15.617-8.335,20.919-3.742,5.303-8.571,9.151-14.491,11.549-5.921,2.396-13.129,3.596-21.627,3.596ZM352.914,162.777c4.503,0,8.025-1.27,10.568-3.813,2.542-2.541,4.43-6.682,5.666-12.42.654-3.051.98-5.593.98-7.627,0-3.195-.8-5.448-2.397-6.755-1.598-1.308-4.213-1.962-7.844-1.962-4.576,0-8.136,1.218-10.678,3.65-2.543,2.435-4.431,6.665-5.666,12.693-.654,2.905-.98,5.376-.98,7.408,0,3.124.817,5.376,2.451,6.755,1.635,1.381,4.267,2.07,7.899,2.07Z" fill="#000" stroke-width="0"/>
    <path d="M405.647,181.517l11.222-53.061h-18.74l3.596-17.105h61.014l-3.595,17.105h-18.849l-11.222,53.061h-23.425Z" fill="#000" stroke-width="0"/>
    <path d="M470.473,181.517l11.222-53.061h-18.74l3.596-17.105h61.014l-3.596,17.105h-18.849l-11.223,53.061h-23.425Z" fill="#000" stroke-width="0"/>
    <path d="M517.104,181.517l14.817-70.166h23.425l-11.113,52.298h30.071l-3.704,17.868h-53.496Z" fill="#000" stroke-width="0"/>
    <path d="M575.067,181.517l14.817-70.166h54.586l-3.596,17.323h-31.16l-1.962,8.935h27.13l-3.704,17.76h-27.13l-1.961,8.825h31.16l-3.595,17.323h-54.586Z" fill="#000" stroke-width="0"/>
    <path d="M673.67,182.607c-6.756,0-12.657-1.035-17.705-3.105-5.05-2.07-8.989-5.121-11.821-9.152-2.833-4.031-4.249-8.988-4.249-14.872,0-2.76.326-5.701.98-8.825,2.541-11.911,7.589-20.955,15.145-27.129,7.553-6.173,18.521-9.262,32.903-9.262,4.285,0,8.117.327,11.495.98,3.377.654,6.519,1.599,9.424,2.833l-4.357,20.375c-2.906-1.525-5.794-2.633-8.662-3.323-2.87-.689-6.374-1.035-10.514-1.035-5.884,0-10.643,1.253-14.273,3.759-3.633,2.506-6.065,6.773-7.3,12.802-.218,1.163-.4,2.252-.545,3.269-.146,1.019-.218,1.961-.218,2.833,0,3.704,1.216,6.303,3.65,7.79,2.433,1.489,6.409,2.233,11.93,2.233,3.559,0,7.063-.344,10.515-1.035,3.449-.689,6.954-1.76,10.514-3.214l-4.358,20.483c-3.415,1.163-6.918,2.053-10.514,2.669s-7.609.927-12.039.927Z" fill="#ed1c24" stroke-width="0"/>
    <path d="M730.978,182.607c-8.571,0-15.09-1.706-19.557-5.121-4.467-3.413-6.701-8.316-6.701-14.709,0-1.089.055-2.233.164-3.432.108-1.198.308-2.414.599-3.65,1.889-8.86,5.737-15.562,11.55-20.102,5.81-4.539,14.272-6.81,25.386-6.81,8.716,0,15.325,1.727,19.829,5.175,4.503,3.451,6.756,8.408,6.756,14.873,0,1.089-.073,2.197-.218,3.322-.146,1.127-.327,2.307-.545,3.541-1.816,8.863-5.685,15.563-11.604,20.103-5.921,4.54-14.474,6.81-25.659,6.81ZM734.573,165.719c2.615,0,4.721-.763,6.319-2.288,1.597-1.525,2.76-4.104,3.486-7.736.437-1.888.654-3.449.654-4.685,0-1.888-.49-3.25-1.472-4.086-.98-.834-2.56-1.253-4.739-1.253-2.543,0-4.559.763-6.047,2.288-1.489,1.525-2.634,4.104-3.432,7.735-.436,1.962-.654,3.596-.654,4.903,0,1.816.472,3.124,1.417,3.922.943.801,2.433,1.199,4.467,1.199Z" fill="#ed1c24" stroke-width="0"/>
    <path d="M781.643,181.517l-9.479-51.644h23.752l2.506,27.021,13.946-27.021h25.06l-31.27,51.644h-24.515Z" fill="#ed1c24" stroke-width="0"/>
    <path d="M855.947,182.607c-5.085,0-9.606-.781-13.564-2.343-3.96-1.562-7.082-3.868-9.37-6.919s-3.432-6.826-3.432-11.331c0-1.888.218-3.922.653-6.102,1.234-5.519,3.142-10.296,5.721-14.327,2.577-4.031,6.173-7.172,10.786-9.424,4.611-2.251,10.55-3.378,17.813-3.378,7.191,0,12.874,1.798,17.052,5.394,4.176,3.595,6.265,8.299,6.265,14.109,0,.8-.055,1.634-.163,2.506-.109.871-.237,1.743-.382,2.614l-1.853,8.935h-35.082c.362,2.107,1.67,3.633,3.922,4.576,2.251.944,5.811,1.416,10.678,1.416,3.195,0,6.354-.272,9.479-.817,3.122-.544,5.666-1.18,7.627-1.906l-2.833,13.292c-5.665,2.471-13.438,3.705-23.316,3.705ZM851.916,150.138h17.215l.218-1.416c.219-1.525-.236-2.833-1.361-3.922-1.127-1.09-3.034-1.635-5.721-1.635-3.123,0-5.521.618-7.19,1.853-1.672,1.235-2.724,2.941-3.16,5.12Z" fill="#ed1c24" stroke-width="0"/>
  </g>
</svg>